<mxfile host="app.diagrams.net" modified="2021-07-28T06:59:17.850Z" agent="5.0 (Macintosh; Intel Mac OS X 10_15_7) AppleWebKit/537.36 (KHTML, like Gecko) Chrome/91.0.4472.114 Safari/537.36" etag="RcQ-nrHMLnYVBYM9ZVZL" version="14.8.5" type="github">
  <diagram id="cVAvhTtTh0kWz4ZDLpcs" name="Page-1">
    <mxGraphModel dx="2566" dy="1030" grid="1" gridSize="10" guides="1" tooltips="1" connect="1" arrows="1" fold="1" page="1" pageScale="1" pageWidth="827" pageHeight="1169" math="0" shadow="0">
      <root>
        <mxCell id="0" />
        <mxCell id="1" parent="0" />
        <mxCell id="queUb4HfAiarSpXrlCLQ-7" value="" style="rounded=0;whiteSpace=wrap;html=1;labelBackgroundColor=none;fillColor=#e1d5e7;strokeColor=none;" vertex="1" parent="1">
          <mxGeometry x="-220" y="80" width="1210" height="640" as="geometry" />
        </mxCell>
        <mxCell id="queUb4HfAiarSpXrlCLQ-39" value="" style="rounded=0;whiteSpace=wrap;html=1;labelBackgroundColor=none;fillColor=#dae8fc;strokeColor=none;" vertex="1" parent="1">
          <mxGeometry x="260" y="240" width="160" height="300" as="geometry" />
        </mxCell>
        <mxCell id="queUb4HfAiarSpXrlCLQ-8" value="" style="fontColor=#0066CC;verticalAlign=top;verticalLabelPosition=bottom;labelPosition=center;align=center;html=1;outlineConnect=0;fillColor=#CCCCCC;strokeColor=#6881B3;gradientColor=none;gradientDirection=north;strokeWidth=2;shape=mxgraph.networks.server;labelBackgroundColor=none;" vertex="1" parent="1">
          <mxGeometry x="-200" y="90" width="50" height="50" as="geometry" />
        </mxCell>
        <mxCell id="queUb4HfAiarSpXrlCLQ-9" value="" style="html=1;verticalLabelPosition=bottom;labelBackgroundColor=none;verticalAlign=top;shadow=0;dashed=0;strokeWidth=1;shape=mxgraph.ios7.misc.iphone;strokeColor=#c0c0c0;fontColor=#FFFFFF;" vertex="1" parent="1">
          <mxGeometry x="860.01" y="130" width="70" height="130" as="geometry" />
        </mxCell>
        <mxCell id="queUb4HfAiarSpXrlCLQ-10" value="内嵌&lt;br&gt;SDK" style="rounded=1;whiteSpace=wrap;html=1;labelBackgroundColor=none;fontColor=#FFFFFF;strokeColor=none;fillColor=#B266FF;" vertex="1" parent="1">
          <mxGeometry x="875.62" y="190" width="38.75" height="40" as="geometry" />
        </mxCell>
        <mxCell id="queUb4HfAiarSpXrlCLQ-11" value="" style="html=1;verticalLabelPosition=bottom;labelBackgroundColor=none;verticalAlign=top;shadow=0;dashed=0;strokeWidth=1;shape=mxgraph.ios7.misc.iphone;strokeColor=#c0c0c0;fontColor=#FFFFFF;" vertex="1" parent="1">
          <mxGeometry x="860" y="330" width="70" height="130" as="geometry" />
        </mxCell>
        <mxCell id="queUb4HfAiarSpXrlCLQ-12" value="内嵌&lt;br&gt;SDK" style="rounded=1;whiteSpace=wrap;html=1;labelBackgroundColor=none;fontColor=#FFFFFF;strokeColor=none;fillColor=#B266FF;" vertex="1" parent="1">
          <mxGeometry x="875.63" y="380" width="38.75" height="40" as="geometry" />
        </mxCell>
        <mxCell id="queUb4HfAiarSpXrlCLQ-26" style="rounded=0;orthogonalLoop=1;jettySize=auto;html=1;fontColor=#FFFFFF;dashed=1;" edge="1" parent="1" source="queUb4HfAiarSpXrlCLQ-13" target="queUb4HfAiarSpXrlCLQ-22">
          <mxGeometry relative="1" as="geometry" />
        </mxCell>
        <mxCell id="queUb4HfAiarSpXrlCLQ-27" style="edgeStyle=none;rounded=0;orthogonalLoop=1;jettySize=auto;html=1;dashed=1;fontColor=#FFFFFF;" edge="1" parent="1" source="queUb4HfAiarSpXrlCLQ-13" target="queUb4HfAiarSpXrlCLQ-25">
          <mxGeometry relative="1" as="geometry" />
        </mxCell>
        <mxCell id="queUb4HfAiarSpXrlCLQ-28" style="edgeStyle=none;rounded=0;orthogonalLoop=1;jettySize=auto;html=1;dashed=1;fontColor=#FFFFFF;" edge="1" parent="1" source="queUb4HfAiarSpXrlCLQ-13" target="queUb4HfAiarSpXrlCLQ-24">
          <mxGeometry relative="1" as="geometry" />
        </mxCell>
        <mxCell id="queUb4HfAiarSpXrlCLQ-29" style="edgeStyle=none;rounded=0;orthogonalLoop=1;jettySize=auto;html=1;dashed=1;fontColor=#FFFFFF;" edge="1" parent="1" source="queUb4HfAiarSpXrlCLQ-13" target="queUb4HfAiarSpXrlCLQ-9">
          <mxGeometry relative="1" as="geometry" />
        </mxCell>
        <mxCell id="queUb4HfAiarSpXrlCLQ-30" style="edgeStyle=none;rounded=0;orthogonalLoop=1;jettySize=auto;html=1;dashed=1;fontColor=#FFFFFF;" edge="1" parent="1" source="queUb4HfAiarSpXrlCLQ-13" target="queUb4HfAiarSpXrlCLQ-11">
          <mxGeometry relative="1" as="geometry" />
        </mxCell>
        <mxCell id="queUb4HfAiarSpXrlCLQ-37" style="edgeStyle=none;rounded=0;orthogonalLoop=1;jettySize=auto;html=1;dashed=1;fontColor=#FFFFFF;" edge="1" parent="1" source="queUb4HfAiarSpXrlCLQ-13" target="queUb4HfAiarSpXrlCLQ-32">
          <mxGeometry relative="1" as="geometry" />
        </mxCell>
        <mxCell id="queUb4HfAiarSpXrlCLQ-13" value="NETestWD Server&lt;br&gt;遵循w3c-WebDriver 协议&amp;nbsp;" style="rounded=0;whiteSpace=wrap;html=1;labelBackgroundColor=none;fillColor=#1ba1e2;fontColor=#ffffff;strokeColor=none;" vertex="1" parent="1">
          <mxGeometry x="520" y="310" width="160" height="170" as="geometry" />
        </mxCell>
        <mxCell id="queUb4HfAiarSpXrlCLQ-22" value="Rest API_0" style="rounded=1;whiteSpace=wrap;html=1;labelBackgroundColor=none;fillColor=#fad9d5;strokeColor=none;" vertex="1" parent="1">
          <mxGeometry x="280" y="260" width="120" height="50" as="geometry" />
        </mxCell>
        <mxCell id="queUb4HfAiarSpXrlCLQ-24" value="Rest API_n ..." style="rounded=1;whiteSpace=wrap;html=1;labelBackgroundColor=none;fillColor=#fad9d5;strokeColor=none;" vertex="1" parent="1">
          <mxGeometry x="280" y="480" width="120" height="50" as="geometry" />
        </mxCell>
        <mxCell id="queUb4HfAiarSpXrlCLQ-25" value="Rest API_1" style="rounded=1;whiteSpace=wrap;html=1;labelBackgroundColor=none;fillColor=#fad9d5;strokeColor=none;" vertex="1" parent="1">
          <mxGeometry x="280" y="370" width="120" height="50" as="geometry" />
        </mxCell>
        <mxCell id="queUb4HfAiarSpXrlCLQ-32" value="" style="html=1;verticalLabelPosition=bottom;labelBackgroundColor=none;verticalAlign=top;shadow=0;dashed=0;strokeWidth=1;shape=mxgraph.ios7.misc.iphone;strokeColor=#c0c0c0;fontColor=#FFFFFF;" vertex="1" parent="1">
          <mxGeometry x="860.01" y="520" width="70" height="130" as="geometry" />
        </mxCell>
        <mxCell id="queUb4HfAiarSpXrlCLQ-33" value="内嵌&lt;br&gt;SDK" style="rounded=1;whiteSpace=wrap;html=1;labelBackgroundColor=none;fontColor=#FFFFFF;strokeColor=none;fillColor=#B266FF;" vertex="1" parent="1">
          <mxGeometry x="875.64" y="570" width="38.75" height="40" as="geometry" />
        </mxCell>
        <mxCell id="queUb4HfAiarSpXrlCLQ-40" style="edgeStyle=none;rounded=0;orthogonalLoop=1;jettySize=auto;html=1;dashed=1;fontColor=#FFFFFF;" edge="1" parent="1" source="queUb4HfAiarSpXrlCLQ-38" target="queUb4HfAiarSpXrlCLQ-39">
          <mxGeometry relative="1" as="geometry" />
        </mxCell>
        <mxCell id="queUb4HfAiarSpXrlCLQ-38" value="Node JS &lt;br&gt;Server" style="rounded=0;whiteSpace=wrap;html=1;labelBackgroundColor=none;fillColor=#f0a30a;fontColor=#000000;strokeColor=none;" vertex="1" parent="1">
          <mxGeometry x="-60" y="330" width="120" height="120" as="geometry" />
        </mxCell>
        <mxCell id="queUb4HfAiarSpXrlCLQ-42" style="edgeStyle=none;rounded=0;orthogonalLoop=1;jettySize=auto;html=1;dashed=1;fontColor=#FFFFFF;" edge="1" parent="1" source="queUb4HfAiarSpXrlCLQ-41" target="queUb4HfAiarSpXrlCLQ-38">
          <mxGeometry relative="1" as="geometry" />
        </mxCell>
        <mxCell id="queUb4HfAiarSpXrlCLQ-43" value="&lt;font color=&quot;#000000&quot;&gt;执行用例&lt;/font&gt;" style="edgeLabel;html=1;align=center;verticalAlign=middle;resizable=0;points=[];fontColor=#FFFFFF;" vertex="1" connectable="0" parent="queUb4HfAiarSpXrlCLQ-42">
          <mxGeometry x="-0.2552" y="-1" relative="1" as="geometry">
            <mxPoint as="offset" />
          </mxGeometry>
        </mxCell>
        <mxCell id="queUb4HfAiarSpXrlCLQ-41" value="" style="shape=actor;whiteSpace=wrap;html=1;labelBackgroundColor=none;fontColor=#FFFFFF;fillColor=#B266FF;" vertex="1" parent="1">
          <mxGeometry x="-390" y="360" width="40" height="60" as="geometry" />
        </mxCell>
      </root>
    </mxGraphModel>
  </diagram>
</mxfile>
